<svg width="128" height="129" viewBox="0 0 128 129" fill="none" xmlns="http://www.w3.org/2000/svg">
<g clip-path="url(#clip0_33_1549)">
<path d="M116.478 71.1179L116.395 33.6445L63.2045 3.0184L10.1448 33.8751L10.2255 71.1131L7.61693 71.1179L7.53394 32.3706L63.1973 0L119.001 32.1306L119.086 71.1131L116.478 71.1179Z" fill="black"/>
<path d="M63.4747 129L8.32349 97.2474L9.623 94.98L63.4676 125.982L117.179 94.7471L118.488 97.0097L63.4747 129Z" fill="black"/>
<path d="M64.2092 13.9617L62.9097 16.2285L106.144 41.1252L107.444 38.8584L64.2092 13.9617Z" fill="black"/>
<path d="M99.5252 92.7308L63.1162 113.909L64.4256 116.17L100.835 94.9919L99.5252 92.7308Z" fill="black"/>
<path d="M21.7299 40.1703L19.1213 40.1758L19.186 71.1203L21.7945 71.1148L21.7299 40.1703Z" fill="black"/>
<path d="M5.21708 78.7354V88.052H4.10964V83.8334H1.16202V88.052H0.0593262V78.7354H1.16202V82.8066H4.10964V78.7354H5.21708Z" fill="black" stroke="black" stroke-width="0.5" stroke-miterlimit="10"/>
<path d="M11.7454 87.0277V88.052H7.14966V78.7354H11.5984V79.7454H8.24049V82.8209H11.3612V83.8191H8.24049V87.0277H11.7454Z" fill="black" stroke="black" stroke-width="0.5" stroke-miterlimit="10"/>
<path d="M12.981 85.124V81.6493C12.981 79.7479 14.0172 78.5596 15.7436 78.5596C17.47 78.5596 18.492 79.7479 18.492 81.6493V85.124C18.492 87.0396 17.47 88.2137 15.7436 88.2137C14.0172 88.2137 12.981 87.0396 12.981 85.124ZM17.3751 85.124V81.6493C17.3751 80.3587 16.8178 79.6267 15.7436 79.6267C14.6694 79.6267 14.0836 80.3587 14.0836 81.6493V85.124C14.0836 86.4288 14.6409 87.1608 15.7436 87.1608C16.8463 87.1608 17.3751 86.4288 17.3751 85.124Z" fill="black" stroke="black" stroke-width="0.5" stroke-miterlimit="10"/>
<path d="M25.331 78.7354V88.052H24.2283V83.8334H21.2807V88.052H20.178V78.7354H21.2807V82.8066H24.2283V78.7354H25.331Z" fill="black" stroke="black" stroke-width="0.5" stroke-miterlimit="10"/>
<path d="M32.0136 78.7354V88.052H30.9251V79.7597H28.76C28.6272 82.5808 28.5087 84.9647 28.3474 86.096C28.1482 87.5458 27.4582 88.1851 26.2891 88.1851V87.1607C26.8867 87.1607 27.1807 86.7211 27.2993 85.8821C27.4321 84.8981 27.5649 82.5404 27.7119 78.7354H32.0136Z" fill="black" stroke="black" stroke-width="0.5" stroke-miterlimit="10"/>
<path d="M37.4535 86.0363H34.7596L34.2664 88.0588H33.1257L35.5161 78.7422H36.7018L39.0921 88.0588H37.942L37.4535 86.0363ZM37.2164 85.0238L36.4575 81.8699C36.3129 81.271 36.1801 80.4843 36.1255 80.1254H36.0876C36.033 80.4843 35.9002 81.271 35.7556 81.8699L34.9968 85.0238H37.2164Z" fill="black" stroke="black" stroke-width="0.5" stroke-miterlimit="10"/>
<path d="M40.176 78.7357H41.2621V83.7006C41.2621 84.2591 41.236 85.2978 41.1815 85.9347L41.2218 85.9632C41.3688 85.5758 41.6202 84.9246 41.8739 84.378L44.3449 78.7357H45.514V88.0523H44.4374V82.9805C44.4374 82.422 44.4659 81.3976 44.4919 80.8248L44.4659 80.7987C44.3331 81.1433 44.0675 81.8373 43.8801 82.2627L41.3309 88.0523H40.1879L40.176 78.7357ZM41.319 76.2734H42.1158C42.1561 76.7916 42.3956 77.0577 42.8604 77.0577C43.3252 77.0577 43.5718 76.7916 43.6027 76.2734H44.4137C44.3734 77.2717 43.79 77.8444 42.8723 77.8444C41.9546 77.8444 41.3593 77.2717 41.319 76.2734Z" fill="black" stroke="black" stroke-width="0.5" stroke-miterlimit="10"/>
<path d="M52.5925 78.7354V88.052H51.4922V83.8334H48.5422V88.052H47.4419V78.7354H48.5422V82.8066H51.4922V78.7354H52.5925Z" fill="black" stroke="black" stroke-width="0.5" stroke-miterlimit="10"/>
<path d="M57.48 78.7354H58.5732V87.0277H61.2694V78.7354H62.3579V87.0277H65.0542V78.7354H66.1308V88.052H57.48V78.7354Z" fill="black" stroke="black" stroke-width="0.5" stroke-miterlimit="10"/>
<path d="M69.804 83.7383L69.1661 84.67V88.052H68.0776V78.7354H69.1661V82.9944L69.8562 81.875L71.9548 78.7354H73.2757L70.4538 82.7947L73.6409 88.052H72.3793L69.804 83.7383Z" fill="black" stroke="black" stroke-width="0.5" stroke-miterlimit="10"/>
<path d="M74.1057 85.124V81.6493C74.1057 79.7479 75.142 78.5596 76.8684 78.5596C78.5947 78.5596 79.6168 79.7479 79.6168 81.6493V85.124C79.6168 87.0396 78.5947 88.2137 76.8684 88.2137C75.142 88.2137 74.1057 87.0396 74.1057 85.124ZM78.5023 85.124V81.6493C78.5023 80.3587 77.945 79.6267 76.8684 79.6267C75.7918 79.6267 75.2226 80.3587 75.2226 81.6493V85.124C75.2226 86.4288 75.7799 87.1608 76.8684 87.1608C77.9568 87.1608 78.4928 86.4288 78.4928 85.124H78.5023Z" fill="black" stroke="black" stroke-width="0.5" stroke-miterlimit="10"/>
<path d="M86.0573 78.7354V88.052H84.9689V79.7597H82.8038C82.671 82.5808 82.5525 84.9647 82.3936 86.096C82.1944 87.5458 81.5019 88.1851 80.3352 88.1851V87.1607C80.9328 87.1607 81.2245 86.7211 81.343 85.8821C81.4758 84.8981 81.6086 82.5404 81.7557 78.7354H86.0573Z" fill="black" stroke="black" stroke-width="0.5" stroke-miterlimit="10"/>
<path d="M91.4901 86.0363H88.7938L88.3029 88.0588H87.1599L89.5503 78.7422H90.736L93.1263 88.0588H91.9857L91.4901 86.0363ZM91.2529 85.0238L90.4964 81.8699C90.3494 81.271 90.2166 80.4843 90.1645 80.1254H90.1123C90.0577 80.4843 89.9249 81.271 89.7803 81.8699L89.0238 85.0238H91.2529Z" fill="black" stroke="black" stroke-width="0.5" stroke-miterlimit="10"/>
<path d="M102.273 81.6753C102.273 83.6052 101.277 84.6581 99.5102 84.6581H98.2486V88.052H97.1602V78.7354H99.5102C101.277 78.7354 102.273 79.8001 102.273 81.6753ZM101.17 81.6753C101.17 80.4109 100.625 79.774 99.5102 79.774H98.2486V83.6195H99.5102C100.625 83.6195 101.17 83.0063 101.17 81.6753Z" fill="black" stroke="black" stroke-width="0.5" stroke-miterlimit="10"/>
<path d="M103.506 85.2309V78.7354H104.623V85.2309C104.623 86.5214 105.232 87.1203 106.15 87.1203C107.068 87.1203 107.689 86.5214 107.689 85.2309V78.7354H108.792V85.2309C108.792 87.1465 107.73 88.1851 106.15 88.1851C104.571 88.1851 103.506 87.1465 103.506 85.2309Z" fill="black" stroke="black" stroke-width="0.5" stroke-miterlimit="10"/>
<path d="M112.617 84.5369H111.668V88.052H110.58V78.7354H112.852C114.604 78.7354 115.574 79.774 115.574 81.5565C115.574 83.0871 114.896 84.0996 113.727 84.4323L115.877 88.052H114.644L112.617 84.5369ZM111.668 83.5125H112.837C113.914 83.5125 114.471 82.8352 114.471 81.5969C114.471 80.3586 113.914 79.7597 112.852 79.7597H111.666L111.668 83.5125Z" fill="black" stroke="black" stroke-width="0.5" stroke-miterlimit="10"/>
<path d="M121.488 79.7597H119.496V88.052H118.394V79.7597H116.402V78.7354H121.488V79.7597Z" fill="black" stroke="black" stroke-width="0.5" stroke-miterlimit="10"/>
<path d="M122.43 85.124V81.6493C122.43 79.7479 123.466 78.5596 125.192 78.5596C126.919 78.5596 127.941 79.7479 127.941 81.6493V85.124C127.941 87.0396 126.919 88.2137 125.192 88.2137C123.466 88.2137 122.43 87.0396 122.43 85.124ZM126.826 85.124V81.6493C126.826 80.3587 126.269 79.6267 125.192 79.6267C124.116 79.6267 123.547 80.3587 123.547 81.6493V85.124C123.547 86.4288 124.104 87.1608 125.192 87.1608C126.281 87.1608 126.826 86.4288 126.826 85.124Z" fill="black" stroke="black" stroke-width="0.5" stroke-miterlimit="10"/>
</g>
<defs>
<clipPath id="clip0_33_1549">
<rect width="128" height="129" fill="white"/>
</clipPath>
</defs>
</svg>
