<svg width="26" height="26" viewBox="0 0 26 26" fill="none" xmlns="http://www.w3.org/2000/svg">
<path d="M5.62749 11.3419C7.60082 15.22 10.7801 18.3993 14.6582 20.3726L17.673 17.3578C18.0567 16.9741 18.5912 16.8644 19.0708 17.0152C20.6056 17.5222 22.2501 17.7963 23.963 17.7963C24.3265 17.7963 24.6751 17.9407 24.932 18.1977C25.189 18.4547 25.3334 18.8032 25.3334 19.1667V23.963C25.3334 24.3264 25.189 24.675 24.932 24.932C24.6751 25.189 24.3265 25.3333 23.963 25.3333C17.7845 25.3333 11.859 22.8789 7.49008 18.51C3.12117 14.1411 0.666748 8.2156 0.666748 2.03704C0.666748 1.67359 0.811126 1.32503 1.06812 1.06804C1.32511 0.811045 1.67367 0.666667 2.03712 0.666667H6.83341C7.19686 0.666667 7.54542 0.811045 7.80241 1.06804C8.05941 1.32503 8.20378 1.67359 8.20378 2.03704C8.20378 3.75 8.47786 5.39444 8.9849 6.92926C9.13564 7.40889 9.02601 7.94333 8.6423 8.32704L5.62749 11.3419Z" fill="white"/>
</svg>
