<svg width="512" height="512" viewBox="0 0 512 512" fill="none" xmlns="http://www.w3.org/2000/svg">
<g clip-path="url(#clip0_244_1400)">
<circle cx="256" cy="256" r="256" fill="#B241D1"/>
<g clip-path="url(#clip1_244_1400)">
<path d="M410.882 275.597L410.637 164.63L253.144 73.9382L96.0378 165.312L96.2765 275.583L88.5529 275.597L88.3071 160.857L253.123 65L418.353 160.146L418.606 275.583L410.882 275.597Z" fill="white"/>
<path d="M253.945 447L90.6455 352.973L94.4933 346.259L253.924 438.062L412.961 345.569L416.837 352.269L253.945 447Z" fill="white"/>
<path d="M256.119 106.344L252.271 113.057L380.287 186.782L384.135 180.069L256.119 106.344Z" fill="white"/>
<path d="M360.688 339.598L252.883 402.312L256.76 409.008L364.565 346.294L360.688 339.598Z" fill="white"/>
<path d="M130.341 183.954L122.617 183.97L122.809 275.604L130.532 275.588L130.341 183.954Z" fill="white"/>
<path d="M81.4476 298.154V325.743H78.1685V313.25H69.4408V325.743H66.1758V298.154H69.4408V310.21H78.1685V298.154H81.4476Z" fill="white" stroke="white" stroke-width="0.5" stroke-miterlimit="10"/>
<path d="M100.778 322.709V325.743H87.1699V298.154H100.342V301.145H90.3998V310.252H99.6401V313.208H90.3998V322.709H100.778Z" fill="white" stroke="white" stroke-width="0.5" stroke-miterlimit="10"/>
<path d="M104.436 317.073V306.783C104.436 301.153 107.504 297.634 112.616 297.634C117.728 297.634 120.754 301.153 120.754 306.783V317.073C120.754 322.745 117.728 326.222 112.616 326.222C107.504 326.222 104.436 322.745 104.436 317.073ZM117.447 317.073V306.783C117.447 302.962 115.797 300.794 112.616 300.794C109.435 300.794 107.701 302.962 107.701 306.783V317.073C107.701 320.936 109.351 323.104 112.616 323.104C115.881 323.104 117.447 320.936 117.447 317.073Z" fill="white" stroke="white" stroke-width="0.5" stroke-miterlimit="10"/>
<path d="M141.004 298.154V325.743H137.739V313.25H129.011V325.743H125.746V298.154H129.011V310.21H137.739V298.154H141.004Z" fill="white" stroke="white" stroke-width="0.5" stroke-miterlimit="10"/>
<path d="M160.79 298.154V325.743H157.567V301.187H151.157C150.764 309.541 150.412 316.6 149.935 319.951C149.345 324.244 147.302 326.137 143.84 326.137V323.104C145.61 323.104 146.48 321.802 146.831 319.317C147.225 316.403 147.618 309.422 148.053 298.154H160.79Z" fill="white" stroke="white" stroke-width="0.5" stroke-miterlimit="10"/>
<path d="M176.897 319.774H168.921L167.46 325.763H164.083L171.161 298.175H174.671L181.749 325.763H178.344L176.897 319.774ZM176.195 316.776L173.948 307.437C173.52 305.663 173.127 303.333 172.965 302.271H172.853C172.691 303.333 172.298 305.663 171.87 307.437L169.623 316.776H176.195Z" fill="white" stroke="white" stroke-width="0.5" stroke-miterlimit="10"/>
<path d="M184.958 298.155H188.174V312.857C188.174 314.511 188.097 317.587 187.936 319.473L188.055 319.557C188.49 318.41 189.235 316.482 189.986 314.863L197.302 298.155H200.764V325.744H197.576V310.725C197.576 309.071 197.66 306.037 197.738 304.341L197.66 304.264C197.267 305.284 196.481 307.339 195.926 308.599L188.378 325.744H184.994L184.958 298.155ZM188.343 290.864H190.702C190.821 292.398 191.531 293.186 192.907 293.186C194.283 293.186 195.013 292.398 195.105 290.864H197.506C197.387 293.82 195.659 295.516 192.942 295.516C190.225 295.516 188.462 293.82 188.343 290.864Z" fill="white" stroke="white" stroke-width="0.5" stroke-miterlimit="10"/>
<path d="M221.723 298.154V325.743H218.465V313.25H209.73V325.743H206.472V298.154H209.73V310.21H218.465V298.154H221.723Z" fill="white" stroke="white" stroke-width="0.5" stroke-miterlimit="10"/>
<path d="M236.194 298.154H239.431V322.709H247.415V298.154H250.638V322.709H258.621V298.154H261.809V325.743H236.194V298.154Z" fill="white" stroke="white" stroke-width="0.5" stroke-miterlimit="10"/>
<path d="M272.685 312.969L270.796 315.728V325.743H267.573V298.154H270.796V310.766L272.839 307.451L279.053 298.154H282.964L274.609 310.175L284.046 325.743H280.31L272.685 312.969Z" fill="white" stroke="white" stroke-width="0.5" stroke-miterlimit="10"/>
<path d="M285.422 317.073V306.783C285.422 301.153 288.491 297.634 293.602 297.634C298.714 297.634 301.74 301.153 301.74 306.783V317.073C301.74 322.745 298.714 326.222 293.602 326.222C288.491 326.222 285.422 322.745 285.422 317.073ZM298.44 317.073V306.783C298.44 302.962 296.79 300.794 293.602 300.794C290.415 300.794 288.729 302.962 288.729 306.783V317.073C288.729 320.936 290.38 323.104 293.602 323.104C296.825 323.104 298.412 320.936 298.412 317.073H298.44Z" fill="white" stroke="white" stroke-width="0.5" stroke-miterlimit="10"/>
<path d="M320.811 298.154V325.743H317.588V301.187H311.177C310.784 309.541 310.433 316.6 309.962 319.951C309.373 324.244 307.322 326.137 303.868 326.137V323.104C305.637 323.104 306.501 321.802 306.852 319.317C307.245 316.403 307.638 309.422 308.074 298.154H320.811Z" fill="white" stroke="white" stroke-width="0.5" stroke-miterlimit="10"/>
<path d="M336.896 319.774H328.913L327.46 325.763H324.075L331.153 298.175H334.664L341.741 325.763H338.364L336.896 319.774ZM336.194 316.776L333.954 307.437C333.519 305.663 333.126 303.333 332.971 302.271H332.817C332.655 303.333 332.262 305.663 331.834 307.437L329.594 316.776H336.194Z" fill="white" stroke="white" stroke-width="0.5" stroke-miterlimit="10"/>
<path d="M368.823 306.86C368.823 312.575 365.874 315.693 360.643 315.693H356.908V325.743H353.685V298.154H360.643C365.874 298.154 368.823 301.307 368.823 306.86ZM365.558 306.86C365.558 303.116 363.943 301.23 360.643 301.23H356.908V312.617H360.643C363.943 312.617 365.558 310.801 365.558 306.86Z" fill="white" stroke="white" stroke-width="0.5" stroke-miterlimit="10"/>
<path d="M372.475 317.389V298.154H375.782V317.389C375.782 321.21 377.586 322.984 380.304 322.984C383.021 322.984 384.861 321.21 384.861 317.389V298.154H388.126V317.389C388.126 323.061 384.98 326.137 380.304 326.137C375.627 326.137 372.475 323.061 372.475 317.389Z" fill="white" stroke="white" stroke-width="0.5" stroke-miterlimit="10"/>
<path d="M399.451 315.334H396.643V325.743H393.42V298.154H400.147C405.335 298.154 408.207 301.23 408.207 306.508C408.207 311.04 406.199 314.039 402.737 315.024L409.106 325.743H405.455L399.451 315.334ZM396.643 312.3H400.104C403.292 312.3 404.942 310.294 404.942 306.628C404.942 302.961 403.292 301.187 400.147 301.187H396.636L396.643 312.3Z" fill="white" stroke="white" stroke-width="0.5" stroke-miterlimit="10"/>
<path d="M425.719 301.187H419.821V325.743H416.556V301.187H410.658V298.154H425.719V301.187Z" fill="white" stroke="white" stroke-width="0.5" stroke-miterlimit="10"/>
<path d="M428.507 317.073V306.783C428.507 301.153 431.575 297.634 436.687 297.634C441.799 297.634 444.825 301.153 444.825 306.783V317.073C444.825 322.745 441.799 326.222 436.687 326.222C431.575 326.222 428.507 322.745 428.507 317.073ZM441.525 317.073V306.783C441.525 302.962 439.875 300.794 436.687 300.794C433.499 300.794 431.814 302.962 431.814 306.783V317.073C431.814 320.936 433.464 323.104 436.687 323.104C439.91 323.104 441.525 320.936 441.525 317.073Z" fill="white" stroke="white" stroke-width="0.5" stroke-miterlimit="10"/>
</g>
</g>
<defs>
<clipPath id="clip0_244_1400">
<rect width="512" height="512" fill="white"/>
</clipPath>
<clipPath id="clip1_244_1400">
<rect width="379" height="382" fill="white" transform="translate(66 65)"/>
</clipPath>
</defs>
</svg>
